<svg xmlns="http://www.w3.org/2000/svg" xmlns:xlink="http://www.w3.org/1999/xlink" width="60" height="60" viewBox="0 0 60 60">
  <defs>
    <clipPath id="clip-path">
      <rect id="사각형_175" data-name="사각형 175" width="47.556" height="31.554"/>
    </clipPath>
  </defs>
  <g id="icon_가족" transform="translate(0 9.463)">
    <rect id="사각형_122" data-name="사각형 122" width="60" height="60" transform="translate(0 -9.463)" fill="#fff"/>
    <g id="그룹_202" data-name="그룹 202" transform="translate(6.222 4.76)">
      <g id="그룹_201" data-name="그룹 201" transform="translate(0 0)" clip-path="url(#clip-path)">
        <path id="패스_3318" data-name="패스 3318" d="M47.553,23.584c.01-.282.18-6.957-4-10.789a.822.822,0,0,0-1.057-.046c-.049.037-4.916,3.693-9.445.005a.823.823,0,0,0-1.061.017A12.334,12.334,0,0,0,29.4,16.325a.827.827,0,0,0-.827.1c-.2.151-4.939,3.676-9.447.005a.82.82,0,0,0-.768-.144,10.96,10.96,0,0,0-2.5-3.491.822.822,0,0,0-1.057-.046c-.05.037-4.916,3.693-9.446.005a.821.821,0,0,0-1.059.017C4.129,12.919.1,16.5,0,23.55a.825.825,0,0,0,.823.834l13.221,0a17.535,17.535,0,0,0-.275,2.844.823.823,0,0,0,.823.836l18.221,0a.823.823,0,0,0,.823-.8,16.859,16.859,0,0,0-.211-2.879l13.306,0a.823.823,0,0,0,.822-.8m-33.132-.848-12.741,0a13.842,13.842,0,0,1,3.246-8.252c4.305,3,8.7.917,10.275-.031a9.977,9.977,0,0,1,1.889,3.05,14.851,14.851,0,0,0-2.668,5.23m1.026,3.679a13.848,13.848,0,0,1,3.247-8.251c4.305,3,8.7.916,10.275-.032,2.448,2.629,2.917,6.6,3,8.28ZM33.1,22.737a13.382,13.382,0,0,0-2.446-5.174,12.61,12.61,0,0,1,1.959-3.077c4.305,3,8.7.917,10.275-.031,2.447,2.627,2.917,6.6,3,8.279Z" transform="translate(0 3.493)"/>
        <path id="패스_3319" data-name="패스 3319" d="M37.154,0a7.785,7.785,0,0,0-7.717,6.771,7.771,7.771,0,0,0-11.709-.809c-.2.206-.391.42-.569.64a7.787,7.787,0,1,0-7.691,8.979h0a7.75,7.75,0,0,0,6.075-2.925,7.8,7.8,0,0,0,7.691,6.6h0a7.786,7.786,0,0,0,7.714-6.77,7.779,7.779,0,0,0,6.2,3.092h0A7.791,7.791,0,0,0,37.154,0M13.811,12.134a6.1,6.1,0,0,1-4.341,1.8h0a6.156,6.156,0,1,1,4.343-1.8M27.58,15.811a6.1,6.1,0,0,1-4.341,1.8h0a6.156,6.156,0,1,1,4.343-1.8M41.5,12.134a6.1,6.1,0,0,1-4.341,1.8h0a6.156,6.156,0,1,1,4.342-1.8" transform="translate(0.466 0)"/>
      </g>
    </g>
  </g>
</svg>
