<svg xmlns="http://www.w3.org/2000/svg" xmlns:xlink="http://www.w3.org/1999/xlink" width="60" height="60" viewBox="0 0 60 60">
  <defs>
    <clipPath id="clip-path">
      <rect id="사각형_190" data-name="사각형 190" width="35.919" height="38.427" fill="none"/>
    </clipPath>
  </defs>
  <g id="icon_두뇌" transform="translate(0 9.463)">
    <rect id="사각형_122" data-name="사각형 122" width="60" height="60" transform="translate(0 -9.463)" fill="#fff"/>
    <g id="그룹_215" data-name="그룹 215" transform="translate(12.041 1.323)">
      <g id="그룹_214" data-name="그룹 214" clip-path="url(#clip-path)">
        <path id="패스_3338" data-name="패스 3338" d="M31.743,4.779A19,19,0,0,0,18.473,0a19.921,19.921,0,0,0-6.667,1.584C9.388,2.6,6.18,4.513,4.626,7.865A.588.588,0,0,0,4.6,7.92a14.187,14.187,0,0,0-.756,3.592c0,.385.029.776.058,1.154a4.322,4.322,0,0,1-.2,2.319A18.5,18.5,0,0,1,1.1,18.511,2.652,2.652,0,0,0,0,20.474a1.892,1.892,0,0,0,.91,1.5c.485.342.892.581,1.188.756a5.13,5.13,0,0,1,.5.318,5.14,5.14,0,0,1-.263.522c-.293.531-.6,1.081-.256,1.534a2.673,2.673,0,0,0,.833.629.97.97,0,0,0-.356.642.725.725,0,0,0,.276.644l.031.025c.239.191.966.771.856,1.175-.019.069-.045.156-.076.257-.268.879-.767,2.515-.081,3.688A2.243,2.243,0,0,0,5.1,33.216c2.4.524,7.318-.25,7.526-.283a.59.59,0,0,0,.084-.02c.086-.027.843-.244,1.083.434.419,1.188,1.349,5.042,1.358,5.081l.568-.137.568-.137c-.039-.161-.953-3.952-1.392-5.2a1.964,1.964,0,0,0-2.49-1.173c-.461.071-4.974.745-7.055.29a1.112,1.112,0,0,1-.778-.5c-.428-.731-.01-2.1.19-2.756.035-.114.065-.212.086-.291a2.2,2.2,0,0,0-.92-2.116,5.073,5.073,0,0,1,.556-.343.584.584,0,0,0-.272-1.1,2.724,2.724,0,0,1-1.057-.446c.057-.121.143-.278.2-.386a2.157,2.157,0,0,0,.416-1.285c-.09-.539-.53-.8-1.087-1.125-.295-.173-.661-.389-1.107-.7a.808.808,0,0,1-.416-.584,1.512,1.512,0,0,1,.661-1.016,19.058,19.058,0,0,0,2.892-3.857,5.157,5.157,0,0,0,.349-2.986c-.028-.373-.055-.726-.055-1.067A13.032,13.032,0,0,1,5.7,8.328c2.525-5.4,10.354-7.16,12.774-7.16A17.653,17.653,0,0,1,30.967,5.653a12.009,12.009,0,0,1,3.7,7.916,12.09,12.09,0,0,1-.483,5.392c-.278.473-1.112,1.58-1.995,2.753-1.037,1.378-2.213,2.939-2.915,4.031a4.374,4.374,0,0,0-.183,4.475l2.391,6.329.053.14,1.093-.413-2.461-6.514a.628.628,0,0,0-.047-.1,3.207,3.207,0,0,1,.137-3.289c.679-1.055,1.84-2.6,2.865-3.96.943-1.252,1.757-2.333,2.068-2.863.9-1.522,1.961-9.968-3.445-14.773" transform="translate(0)"/>
        <path id="패스_3339" data-name="패스 3339" d="M133.581,82.651a2.735,2.735,0,0,0-1.534-1.719,3.178,3.178,0,0,0-.7-2.785,4.079,4.079,0,0,0,1.167-4.562l-.557.174-.557.174a4.028,4.028,0,0,1,.186,1,2.75,2.75,0,0,1-.614,1.938,2.636,2.636,0,0,1-.537.5,12.133,12.133,0,0,0-1.932-1.1c-.957-.455-1.04-.537-.995-.981.013-.125.023-.246.031-.365.053,0,.107,0,.163,0a2.557,2.557,0,0,0,2.54-1.869l-.552-.19-.552-.19a1.846,1.846,0,0,1-.384.671,1.3,1.3,0,0,1-.8.409,1.7,1.7,0,0,1-.4,0,5.84,5.84,0,0,0-1.073-3.493l-.883.764a3.9,3.9,0,0,1,.625,1.506c-.115,0-.245-.012-.385-.024-1.064-.1-2.724-.489-3.149-1.994a2.691,2.691,0,0,1-.088-.479l-1.163.11c.267,2.831,3.135,3.558,4.946,3.564a9.294,9.294,0,0,1-.04,1.452,2.287,2.287,0,0,0,0,.46,21.073,21.073,0,0,0-2.188-.126,15.363,15.363,0,0,0-2.689.21l-.124.019a3.386,3.386,0,0,0,.181-.934,3.758,3.758,0,0,0-.494-2.02l-1.024.562a2.73,2.73,0,0,1,.353,1.146,2.151,2.151,0,0,1-.319,1.28,3.268,3.268,0,0,1-2.84-2.126,2.8,2.8,0,0,1-.082-.3l-.571.123-.571.123a4.1,4.1,0,0,0,1.231,2.119,2.612,2.612,0,0,0-.988,3.215l1.087-.427a1.594,1.594,0,0,1-.12-.691,1.436,1.436,0,0,1,.425-.906,2.4,2.4,0,0,1,.643-.465,5.1,5.1,0,0,0,2.314.529,6.357,6.357,0,0,0,1.1-.1c.141-.025.283-.046.425-.066a3.924,3.924,0,0,1-1.044,1.3l.383.441.383.441a4.371,4.371,0,0,0,1.544-2.3,19.623,19.623,0,0,1,3.881.245h0v0c.11.068.226.131.346.193l.1.049-.07.066a4.268,4.268,0,0,0-1.052,1.535,3.1,3.1,0,0,0-3.355,1.56l.991.619a2.548,2.548,0,0,1,.655-.727,1.784,1.784,0,0,1,.957-.347,1.937,1.937,0,0,1,.562.051,3.008,3.008,0,0,0,.409,1.365l1.016-.576a1.84,1.84,0,0,1,.151-2.081,3.359,3.359,0,0,1,.29-.362,4.14,4.14,0,0,1,.6-.533,9.033,9.033,0,0,1,1.321.873,2.243,2.243,0,0,1,.514,2.83,8.192,8.192,0,0,1-.473.893,7.048,7.048,0,0,0-.676,1.4,4.569,4.569,0,0,0-.171.79,11.727,11.727,0,0,0-.058,1.723c0,.174.006.345.006.512h1.168c0-.173,0-.351-.006-.531a6.977,6.977,0,0,1,.174-2.138,6.072,6.072,0,0,1,.574-1.164c.161-.277.325-.564.467-.869.3.172.7.482.753.784ZM122.827,76.2Zm4.063,3.285Z" transform="translate(-104.686 -63.227)"/>
        <path id="패스_3340" data-name="패스 3340" d="M89.387,57.543c.085-1.925,1.485-3.39,2.986-4.685a.585.585,0,0,0,.148-.2,4.122,4.122,0,0,0,1.007-3.607,3.038,3.038,0,0,0,1.29-4.077,3.51,3.51,0,0,0,.572-1.658c.136-1.808-1.219-3.529-3.331-4.291a4.407,4.407,0,0,0-6.329-3.155A5.558,5.558,0,0,0,82.137,34.2,5.621,5.621,0,0,0,78.1,35.51a3.965,3.965,0,0,0-5.224,2.5,2.621,2.621,0,0,0-2.186,3.648,4.178,4.178,0,0,0-1.264,2.65,4.322,4.322,0,0,0,1.477,3.5,6.442,6.442,0,0,0,3.913,1.638,7.045,7.045,0,0,0,1.124-.005,3.923,3.923,0,0,0,3.443,2.776,3.874,3.874,0,0,0,1.169-.088,3.145,3.145,0,0,0,2.114,1.038,5.4,5.4,0,0,0,2.248-.609.3.3,0,0,1,.075.053c.209.19.9,1.162.971,5.7a.584.584,0,0,0,.584.575h2.288a.584.584,0,0,0,.581-.64,4.982,4.982,0,0,1-.022-.7m-1.167-.052q0,.112-.005.228h-1.1c-.143-4.881-1.039-5.694-1.341-5.968a1.339,1.339,0,0,0-1.025-.363.587.587,0,0,0-.219.062,4.7,4.7,0,0,1-1.777.558,1.987,1.987,0,0,1-1.5-.871.584.584,0,0,0-.676-.223,2.709,2.709,0,0,1-1.1.145,2.743,2.743,0,0,1-2.5-2.338.584.584,0,0,0-.675-.495,5.786,5.786,0,0,1-1.395.062,5.273,5.273,0,0,1-3.2-1.329A3.178,3.178,0,0,1,70.586,44.4a3.07,3.07,0,0,1,1.2-2.16.584.584,0,0,0,.111-.785,1.436,1.436,0,0,1-.255-.936A1.454,1.454,0,0,1,73.2,39.174l.015,0,.049.006A.584.584,0,0,0,73.9,38.7a2.794,2.794,0,0,1,4.033-1.986.584.584,0,0,0,.676-.1,4.454,4.454,0,0,1,3.438-1.252,4.409,4.409,0,0,1,3.111,1.622.584.584,0,0,0,.775.117,3.237,3.237,0,0,1,5.012,2.415.584.584,0,0,0,.416.509c1.787.529,2.964,1.846,2.862,3.2a2.38,2.38,0,0,1-.56,1.344.584.584,0,0,0-.024.708,1.868,1.868,0,0,1-.982,2.868.584.584,0,0,0-.382.751,2.951,2.951,0,0,1-.7,3.055.582.582,0,0,0-.1.126c-1.576,1.378-3.159,3.1-3.261,5.406" transform="translate(-62.653 -30.858)"/>
      </g>
    </g>
  </g>
</svg>
