<svg xmlns="http://www.w3.org/2000/svg" xmlns:xlink="http://www.w3.org/1999/xlink" width="60" height="60" viewBox="0 0 60 60">
  <defs>
    <clipPath id="clip-path">
      <rect id="사각형_174" data-name="사각형 174" width="40.321" height="37.523"/>
    </clipPath>
  </defs>
  <g id="icon_연애" transform="translate(0 9.463)">
    <rect id="사각형_122" data-name="사각형 122" width="60" height="60" transform="translate(0 -9.463)" fill="#fff"/>
    <g id="그룹_200" data-name="그룹 200" transform="translate(9.84 1.775)">
      <g id="그룹_199" data-name="그룹 199" transform="translate(0 0)" clip-path="url(#clip-path)">
        <path id="패스_3315" data-name="패스 3315" d="M25.28,9.734a9.509,9.509,0,0,0-9.819,3.49A9.463,9.463,0,0,0,5.566,9.691,7.379,7.379,0,0,0,0,17.151c0,8.421,14.407,18.613,15.02,19.044a.782.782,0,0,0,.9,0c.614-.43,15.02-10.622,15.02-19.044A7.34,7.34,0,0,0,25.28,9.734m-3,19.088a66.974,66.974,0,0,1-6.813,5.77,67.121,67.121,0,0,1-6.8-5.755C4.02,24.294,1.561,20.253,1.561,17.151A5.8,5.8,0,0,1,5.969,11.2a7.264,7.264,0,0,1,1.872-.239,7.949,7.949,0,0,1,6.95,4.085.77.77,0,0,0,.683.391.781.781,0,0,0,.677-.4,7.878,7.878,0,0,1,8.739-3.788,5.767,5.767,0,0,1,4.484,5.9c0,3.1-2.452,7.134-7.094,11.671" transform="translate(0 1.187)"/>
        <path id="패스_3316" data-name="패스 3316" d="M22.018,1.307a1.306,1.306,0,0,0,1.305,1.305,11.617,11.617,0,0,1,11.6,11.6,1.306,1.306,0,0,0,2.612,0A14.232,14.232,0,0,0,23.323,0a1.307,1.307,0,0,0-1.305,1.307m14.793,12.91a.577.577,0,0,1-1.154,0A12.348,12.348,0,0,0,23.323,1.882a.577.577,0,0,1,0-1.154A13.5,13.5,0,0,1,36.811,14.216" transform="translate(2.781 0)"/>
        <path id="패스_3317" data-name="패스 3317" d="M30.338,13.852a1.306,1.306,0,1,0,2.612,0A9.772,9.772,0,0,0,23.19,4.091a1.305,1.305,0,1,0,0,2.611,7.157,7.157,0,0,1,7.149,7.15M22.612,5.4a.577.577,0,0,1,.578-.577,9.042,9.042,0,0,1,9.032,9.032.577.577,0,0,1-1.154,0A7.887,7.887,0,0,0,23.19,5.973a.578.578,0,0,1-.578-.577" transform="translate(2.764 0.516)"/>
      </g>
    </g>
  </g>
</svg>
