<svg xmlns="http://www.w3.org/2000/svg" width="60" height="60" viewBox="0 0 60 60">
  <g id="icon_연인" transform="translate(0 9.463)">
    <rect id="사각형_122" data-name="사각형 122" width="60" height="60" transform="translate(0 -9.463)" fill="#fff"/>
    <g id="그룹_217" data-name="그룹 217" transform="translate(12.91 0.606)">
      <path id="패스_3341" data-name="패스 3341" d="M2.609,34.179a.5.5,0,0,1-.146-.022.494.494,0,0,1-.323-.617L5.891,21.559a.492.492,0,0,1,.939.294L3.078,33.835a.493.493,0,0,1-.47.344" transform="translate(0.486 4.867)" stroke="#000" stroke-width="0.5"/>
      <path id="패스_3342" data-name="패스 3342" d="M5.692,32.911a.5.5,0,0,1-.146-.022l-5.2-1.628a.492.492,0,0,1,.294-.939l5.2,1.628a.492.492,0,0,1-.146.961" transform="translate(0 6.952)" stroke="#000" stroke-width="0.5"/>
      <path id="패스_3343" data-name="패스 3343" d="M7.908,25.7a5.794,5.794,0,0,1-1.692-.234,6.227,6.227,0,0,1-4.045-4.528C1.444,16.553,6.954,7.507,7.189,7.125a.494.494,0,0,1,.567-.213l7.772,2.435a.488.488,0,0,1,.344.5c-.006.111-.92,11.295-3.757,14.2A5.835,5.835,0,0,1,7.908,25.7M7.832,7.967c-.982,1.666-5.287,9.223-4.689,12.8a5.171,5.171,0,0,0,3.366,3.751,5.182,5.182,0,0,0,4.9-1.159c2.072-2.126,3.228-10.382,3.452-13.193Z" transform="translate(0.483 1.581)" stroke="#000" stroke-width="0.5"/>
      <path id="패스_3344" data-name="패스 3344" d="M14.692,11.527H4.7a.492.492,0,1,1,0-.984h10a.492.492,0,1,1,0,.984" transform="translate(0.965 2.419)" stroke="#000" stroke-width="0.5"/>
      <path id="패스_3345" data-name="패스 3345" d="M26.078,34.179a.493.493,0,0,1-.47-.344L21.857,21.853a.492.492,0,0,1,.939-.294L26.547,33.54a.494.494,0,0,1-.323.617.5.5,0,0,1-.146.022" transform="translate(5.009 4.867)" stroke="#000" stroke-width="0.5"/>
      <path id="패스_3346" data-name="패스 3346" d="M23.262,32.911a.492.492,0,0,1-.146-.961l5.2-1.628a.492.492,0,0,1,.294.939l-5.2,1.628a.5.5,0,0,1-.146.022" transform="translate(5.224 6.952)" stroke="#000" stroke-width="0.5"/>
      <path id="패스_3347" data-name="패스 3347" d="M22.462,25.7a5.832,5.832,0,0,1-4.206-1.646C15.38,21.1,14.506,9.953,14.5,9.843a.492.492,0,0,1,.344-.5l7.769-2.434a.493.493,0,0,1,.567.211c.236.384,5.75,9.43,5.015,13.81a6.214,6.214,0,0,1-4.039,4.527,5.809,5.809,0,0,1-1.694.235M15.509,10.17c.191,2.265,1.245,10.93,3.451,13.193a5.179,5.179,0,0,0,4.9,1.161,5.166,5.166,0,0,0,3.361-3.751c.6-3.583-3.7-11.141-4.687-12.806Z" transform="translate(3.327 1.581)" stroke="#000" stroke-width="0.5"/>
      <path id="패스_3348" data-name="패스 3348" d="M25.147,11.527H15.194a.492.492,0,1,1,0-.984h9.953a.492.492,0,0,1,0,.984" transform="translate(3.373 2.419)" stroke="#000" stroke-width="0.5"/>
      <path id="패스_3349" data-name="패스 3349" d="M16.78,8.236a.486.486,0,0,1-.29-.1,9.132,9.132,0,0,1-2.556-2.408,2.228,2.228,0,0,1-.124-2.3,1.984,1.984,0,0,1,2.984-.505,1.986,1.986,0,0,1,2.99.507h0a2.233,2.233,0,0,1-.13,2.294,8.893,8.893,0,0,1-2.587,2.412.493.493,0,0,1-.286.092M15.518,3.4a1.007,1.007,0,0,0-.852.516,1.281,1.281,0,0,0,.109,1.3,7.537,7.537,0,0,0,2.009,1.912,7.3,7.3,0,0,0,2.029-1.912,1.287,1.287,0,0,0,.114-1.3,1.016,1.016,0,0,0-.852-.515,1.044,1.044,0,0,0-.864.554.489.489,0,0,1-.417.231h0a.5.5,0,0,1-.418-.235,1.026,1.026,0,0,0-.857-.551" transform="translate(3.108 0.564)" stroke="#000" stroke-width="0.5"/>
      <path id="패스_3350" data-name="패스 3350" d="M11.188,5.78a.5.5,0,0,1-.291-.095,9.26,9.26,0,0,1-2.55-2.41,2.23,2.23,0,0,1-.13-2.3A1.985,1.985,0,0,1,11.205.471a1.985,1.985,0,0,1,2.989.51,2.23,2.23,0,0,1-.129,2.294,9.01,9.01,0,0,1-2.59,2.413.492.492,0,0,1-.286.091M9.929.947a1,1,0,0,0-.854.516,1.279,1.279,0,0,0,.112,1.3,7.6,7.6,0,0,0,2.006,1.914,7.5,7.5,0,0,0,2.032-1.914,1.279,1.279,0,0,0,.111-1.3h0a1.014,1.014,0,0,0-.853-.515,1.043,1.043,0,0,0-.861.553.513.513,0,0,1-.834,0A1.042,1.042,0,0,0,9.929.947" transform="translate(1.826)" stroke="#000" stroke-width="0.5"/>
    </g>
  </g>
</svg>
