<svg xmlns="http://www.w3.org/2000/svg" xmlns:xlink="http://www.w3.org/1999/xlink" width="60" height="60" viewBox="0 0 60 60">
  <defs>
    <clipPath id="clip-path">
      <rect id="사각형_191" data-name="사각형 191" width="36.233" height="36.237" fill="none"/>
    </clipPath>
  </defs>
  <g id="icon_자녀" transform="translate(0 9.463)">
    <rect id="사각형_122" data-name="사각형 122" width="60" height="60" transform="translate(0 -9.463)" fill="#fff"/>
    <g id="그룹_219" data-name="그룹 219" transform="translate(11.883 2.418)">
      <g id="그룹_218" data-name="그룹 218" clip-path="url(#clip-path)">
        <path id="패스_3351" data-name="패스 3351" d="M30.041,14.812l.174-.04a7.456,7.456,0,0,0,3.84-12.589A7.455,7.455,0,0,0,21.406,6.377l-.078.285A5.227,5.227,0,0,1,19.751,9.6a9.708,9.708,0,0,1-2.338,1.731,51.348,51.348,0,0,1-4.529-6.211A2.475,2.475,0,1,0,8.641,7.663a62.013,62.013,0,0,0,4.965,6.775A11.054,11.054,0,1,0,21.8,22.632,62.023,62.023,0,0,0,28.574,27.6a2.461,2.461,0,0,0,1.269.354,2.49,2.49,0,0,0,.6-.075,2.475,2.475,0,0,0,.673-4.523,51.277,51.277,0,0,1-6.185-4.507,9.708,9.708,0,0,1,1.729-2.335,5.544,5.544,0,0,1,3.376-1.7m1.093,10.341a1.325,1.325,0,0,1-1.968,1.458,68.742,68.742,0,0,1-7.938-5.963.569.569,0,0,0-.738-.006.551.551,0,0,0-.044.036l-.391.391-.375.375a3.437,3.437,0,0,1-1.638.916,3.5,3.5,0,0,1-1.225.069,3.444,3.444,0,0,1-3.008-3.008,3.5,3.5,0,0,1,.069-1.225,3.435,3.435,0,0,1,.916-1.638l.375-.375.391-.391c.014-.014.024-.029.036-.044a.584.584,0,0,0-.006-.738A68.734,68.734,0,0,1,9.626,7.072,1.325,1.325,0,0,1,11.9,5.708a51.278,51.278,0,0,0,4.415,6.1q.195.234.392.468t.395.462c1,1.155,2.035,2.28,3.077,3.321s2.183,2.1,3.346,3.1q.23.2.461.394t.468.392a51.234,51.234,0,0,0,6.077,4.394,1.316,1.316,0,0,1,.6.815M4.046,32.192a9.905,9.905,0,0,1,9.945-16.458l-.01.01a4.577,4.577,0,0,0-1.2,2.1,7.625,7.625,0,0,0-1.732-.2,7.544,7.544,0,1,0,7.541,7.541,7.615,7.615,0,0,0-.2-1.732,4.577,4.577,0,0,0,2.1-1.2l.01-.01A9.9,9.9,0,0,1,4.046,32.192m13.394-7A6.394,6.394,0,1,1,11.049,18.8a6.455,6.455,0,0,1,1.585.2A4.6,4.6,0,0,0,17.243,23.6a6.456,6.456,0,0,1,.2,1.585m3.55-9.941c-.942-.942-1.893-1.968-2.814-3.028a10.91,10.91,0,0,0,2.388-1.811,6.328,6.328,0,0,0,1.873-3.445l.087-.316a.575.575,0,0,0,.015-.073A6.305,6.305,0,0,1,33.241,3a6.306,6.306,0,0,1-3.255,10.649l-.021,0-.182.042a6.653,6.653,0,0,0-3.931,2,10.9,10.9,0,0,0-1.81,2.387c-1.068-.927-2.1-1.886-3.053-2.836" transform="translate(0 0)"/>
        <path id="패스_3352" data-name="패스 3352" d="M260.362,29.176a3.084,3.084,0,0,1,2.5-1.112,3.094,3.094,0,0,1,.77.133.575.575,0,0,0,.336-1.1,4.229,4.229,0,0,0-5.068,2.253.575.575,0,1,0,1.042.486,3.065,3.065,0,0,1,.418-.66" transform="translate(-234.049 -24.332)"/>
      </g>
    </g>
  </g>
</svg>
