<svg xmlns="http://www.w3.org/2000/svg" xmlns:xlink="http://www.w3.org/1999/xlink" width="60" height="60" viewBox="0 0 60 60">
  <defs>
    <clipPath id="clip-path">
      <rect id="사각형_189" data-name="사각형 189" width="36.418" height="40.461" fill="none"/>
    </clipPath>
  </defs>
  <g id="icon_커피" transform="translate(0 9.463)">
    <rect id="사각형_122" data-name="사각형 122" width="60" height="60" transform="translate(0 -9.463)" fill="#fff"/>
    <g id="그룹_213" data-name="그룹 213" transform="translate(11.791 -1.339)">
      <g id="그룹_212" data-name="그룹 212" clip-path="url(#clip-path)">
        <path id="패스_3331" data-name="패스 3331" d="M39.249,201.783H25.037a.677.677,0,0,1-.564-.3l-2.6-3.932A25.615,25.615,0,0,1,17.6,183.389a.675.675,0,0,1,.675-.675H46.012a.675.675,0,0,1,.675.675,25.615,25.615,0,0,1-4.276,14.159l-2.6,3.932a.677.677,0,0,1-.563.3M25.4,200.432H38.886l2.4-3.63a24.275,24.275,0,0,0,4.043-12.738H18.958A24.28,24.28,0,0,0,23,196.8h0Z" transform="translate(-15.95 -165.606)"/>
        <path id="패스_3332" data-name="패스 3332" d="M282.172,220.825a.675.675,0,0,1-.453-1.177c.242-.219.638-.334,1.874-.616.282-.065.541-.123.712-.171a5.4,5.4,0,0,0,1.3-.485c.135-.068.3-.149.507-.25.146-.07.262-.123.363-.169a6.913,6.913,0,0,0,1.294-.768,8.513,8.513,0,0,0,1.352-1.035,3.435,3.435,0,0,0,.714-.9,2.8,2.8,0,0,0,.352-1.011,2.373,2.373,0,0,0-1.261-2.472,3.269,3.269,0,0,0-1.441-.261,7.467,7.467,0,0,0-1.883.153.675.675,0,0,1-.278-1.322,8.7,8.7,0,0,1,2.226-.181,4.473,4.473,0,0,1,1.985.4,3.723,3.723,0,0,1,1.992,3.85,4.078,4.078,0,0,1-.5,1.484,4.8,4.8,0,0,1-1,1.262,9.633,9.633,0,0,1-1.5,1.147,8.16,8.16,0,0,1-1.49.879l-.342.16c-.2.1-.355.173-.484.238a6.683,6.683,0,0,1-1.538.579c-.186.052-.468.117-.775.187a12.345,12.345,0,0,0-1.325.347.675.675,0,0,1-.4.129m.452-.174h0" transform="translate(-255.139 -190.471)"/>
        <path id="패스_3333" data-name="패스 3333" d="M108.639,419.048H106.8a.675.675,0,1,1,0-1.351h1.839a.675.675,0,0,1,0,1.351" transform="translate(-96.187 -378.586)"/>
        <path id="패스_3334" data-name="패스 3334" d="M28,377.579H16.036a.675.675,0,0,1,0-1.351H28a3.037,3.037,0,0,0,3.032-2.933H1.352a3.037,3.037,0,0,0,3.032,2.933H7.2a.675.675,0,1,1,0,1.351H4.384A4.389,4.389,0,0,1,0,373.194v-.575a.675.675,0,0,1,.675-.675H31.71a.675.675,0,0,1,.675.675v.575A4.389,4.389,0,0,1,28,377.579" transform="translate(0 -337.117)"/>
        <path id="패스_3335" data-name="패스 3335" d="M71.386,60.426a.675.675,0,0,1-.626-.928,3.619,3.619,0,0,0-.338-3.867c-.7-1.169-1.5-2.493.427-5.023a.675.675,0,1,1,1.074.818c-1.372,1.8-.985,2.444-.344,3.509A4.892,4.892,0,0,1,72.013,60a.676.676,0,0,1-.627.423" transform="translate(-63.123 -45.628)"/>
        <path id="패스_3336" data-name="패스 3336" d="M247.343,60.426a.675.675,0,0,1-.626-.928,3.62,3.62,0,0,0-.338-3.867c-.7-1.169-1.5-2.493.427-5.023a.675.675,0,1,1,1.074.818c-1.372,1.8-.985,2.444-.344,3.509A4.892,4.892,0,0,1,247.97,60a.676.676,0,0,1-.627.423" transform="translate(-222.605 -45.628)"/>
        <path id="패스_3337" data-name="패스 3337" d="M153.465,14.217a.676.676,0,0,1-.565-1.045c1.678-2.569.724-4.4-.286-6.347S150.45,2.665,153,.192a.675.675,0,1,1,.941.968c-1.824,1.773-1.148,3.074-.124,5.042,1.038,2,2.329,4.479.219,7.709a.674.674,0,0,1-.566.306" transform="translate(-137.273 -0.001)"/>
      </g>
    </g>
  </g>
</svg>
