<svg xmlns="http://www.w3.org/2000/svg" width="60" height="60" viewBox="0 0 60 60">
  <g id="icon_타로" transform="translate(0 9.463)">
    <rect id="사각형_122" data-name="사각형 122" width="60" height="60" transform="translate(0 -9.463)" fill="#fff"/>
    <g id="그룹_205" data-name="그룹 205" transform="translate(0 -5)">
      <g id="다각형_3" data-name="다각형 3" transform="translate(14 7.537)" fill="none">
        <path d="M15.14,1.452a1,1,0,0,1,1.721,0L31.105,25.49a1,1,0,0,1-.86,1.51H1.755a1,1,0,0,1-.86-1.51Z" stroke="none"/>
        <path d="M 15.99999618530273 3.923086166381836 L 3.509975433349609 25.00000190734863 L 28.49002838134766 25.00000190734863 L 15.99999618530273 3.923086166381836 M 15.99999618530273 0.9615421295166016 C 16.33331108093262 0.9615421295166016 16.66662979125977 1.124942779541016 16.86028861999512 1.451742172241211 L 31.10529899597168 25.49019241333008 C 31.50031852722168 26.15680313110352 31.01986885070801 27.00000190734863 30.24500846862793 27.00000190734863 L 1.754989624023438 27.00000190734863 C 0.9801292419433594 27.00000190734863 0.4996681213378906 26.15680313110352 0.8946990966796875 25.49019241333008 L 15.13970947265625 1.451742172241211 C 15.33336448669434 1.124942779541016 15.66667938232422 0.9615421295166016 15.99999618530273 0.9615421295166016 Z" stroke="none" fill="#000"/>
      </g>
      <g id="다각형_4" data-name="다각형 4" transform="translate(46 44.537) rotate(180)" fill="none">
        <path d="M15.14,1.452a1,1,0,0,1,1.721,0L31.105,25.49a1,1,0,0,1-.86,1.51H1.755a1,1,0,0,1-.86-1.51Z" stroke="none"/>
        <path d="M 15.99999618530273 3.923086166381836 L 3.509975433349609 25.00000190734863 L 28.49002838134766 25.00000190734863 L 15.99999618530273 3.923086166381836 M 15.99999618530273 0.9615421295166016 C 16.33331108093262 0.9615421295166016 16.66662979125977 1.124942779541016 16.86028861999512 1.451742172241211 L 31.10529899597168 25.49019241333008 C 31.50031852722168 26.15680313110352 31.01986885070801 27.00000190734863 30.24500846862793 27.00000190734863 L 1.754989624023438 27.00000190734863 C 0.9801292419433594 27.00000190734863 0.4996681213378906 26.15680313110352 0.8946990966796875 25.49019241333008 L 15.13970947265625 1.451742172241211 C 15.33336448669434 1.124942779541016 15.66667938232422 0.9615421295166016 15.99999618530273 0.9615421295166016 Z" stroke="none" fill="#000"/>
      </g>
      <g id="타원_45" data-name="타원 45" transform="translate(12 7.537)" fill="none" stroke="#000" stroke-width="2">
        <circle cx="18" cy="18" r="18" stroke="none"/>
        <circle cx="18" cy="18" r="17" fill="none"/>
      </g>
    </g>
  </g>
</svg>
