<svg xmlns="http://www.w3.org/2000/svg" xmlns:xlink="http://www.w3.org/1999/xlink" width="60" height="60" viewBox="0 0 60 60">
  <defs>
    <clipPath id="clip-path">
      <rect id="사각형_172" data-name="사각형 172" width="34.614" height="36.971" fill="none"/>
    </clipPath>
  </defs>
  <g id="icon_건강" transform="translate(0 9.463)">
    <rect id="사각형_122" data-name="사각형 122" width="60" height="60" transform="translate(0 -9.463)" fill="#fff"/>
    <g id="그룹_196" data-name="그룹 196" transform="translate(12.693 2.051)">
      <g id="그룹_195" data-name="그룹 195" transform="translate(0 0)" clip-path="url(#clip-path)">
        <path id="패스_3313" data-name="패스 3313" d="M4.461,8.43l-.371.325-.024.019-.886.753.062.033A11.1,11.1,0,0,0,.061,16h0A9.285,9.285,0,0,0,0,17.165c0,.145.013.291.025.465l0,.076c.006.082.012.167.021.248.021.193.051.385.085.573.017.1.035.19.057.3.046.213.094.425.148.605l.01.039A16.517,16.517,0,0,0,1.4,22.18c.3.619.647,1.286,1.069,2.039l.478.86a92.994,92.994,0,0,0,5.035,8.3l.056.07c1.621,1.837,3.632,3.687,6.213,3.512a6.35,6.35,0,0,0,3.054-1.089,6.358,6.358,0,0,0,3.054,1.089c.124.01.247.013.371.013,2.026,0,4.051-1.13,6.025-3.365l.039-.048a44.378,44.378,0,0,0,4.06-6.872c.444-.877.865-1.7,1.292-2.467s.777-1.439,1.067-2.039a16.493,16.493,0,0,0,1.05-2.71l.006-.024c.061-.208.108-.418.149-.615.022-.1.04-.2.059-.3.033-.19.061-.38.082-.569.01-.082.016-.166.022-.248l.007-.105c.01-.147.019-.293.022-.437A8.687,8.687,0,0,0,34.556,16,11.117,11.117,0,0,0,31.37,9.556l.062-.031-.884-.751-.007-.006-.386-.339-.025.013A8.911,8.911,0,0,0,25.05,6.731l-.064,0c-.057,0-.114-.006-.172-.006a9.08,9.08,0,0,0-3.477.685,8.78,8.78,0,0,0-1.125.562,14.348,14.348,0,0,1,2.627-4.477q.223-.258.459-.5l.484-.507-.448-.541c-.4-.486-.765-.912-1.11-1.3L21.659,0l-.593.609a17.375,17.375,0,0,0-2.623,3.485v0A6.559,6.559,0,0,0,12.736.868l-.457,0-.225.4a6.576,6.576,0,0,0-.378,5.649,9.067,9.067,0,0,0-1.876-.2c-.057,0-.114,0-.17.006l-.068,0A8.907,8.907,0,0,0,4.485,8.442ZM21.613,2.344l.064.076-.031.035A15.9,15.9,0,0,0,19.235,6.2c-.01-.052-.019-.1-.03-.156a16.031,16.031,0,0,1,2.409-3.7m-8.394.121a4.961,4.961,0,0,1,4.276,6.569c-.047.006-.094.008-.14.012-.016,0-.031,0-.048,0a4.029,4.029,0,0,1-1.257-.3c-.251-.1-.5-.211-.762-.327l-.354-.154c-.063-.029-.127-.057-.19-.084-.116-.076-.24-.151-.371-.226l-.128-.071c-.07-.039-.138-.079-.214-.117a4.765,4.765,0,0,1-.553-.746,4.994,4.994,0,0,1-.258-4.557M5.349,9.78l.007-.018A7.31,7.31,0,0,1,9.6,8.311L9.726,8.3a.736.736,0,0,1,.074,0,7.531,7.531,0,0,1,2.876.567c.174.073.341.157.506.24a7.029,7.029,0,0,1,.746.431l.142.075c.19.079.381.163.574.249a7.039,7.039,0,0,0,2.635.767h.056a4.469,4.469,0,0,0,.544-.054l-.038.162,1.407-.564c.241-.1.478-.2.712-.306.2-.087.39-.173.584-.253l.143-.075a6.986,6.986,0,0,1,1.252-.671A7.525,7.525,0,0,1,24.814,8.3c.027,0,.052,0,.078,0l.119.006a7.31,7.31,0,0,1,4.249,1.452l.007.017a.879.879,0,0,0,.469.388,9.745,9.745,0,0,1,3.25,6,7.029,7.029,0,0,1,.047.964c0,.121-.011.242-.019.378l-.006.081c0,.063-.008.125-.016.188-.018.156-.041.314-.069.469-.013.079-.027.155-.047.243-.036.177-.075.351-.132.55a14.832,14.832,0,0,1-.954,2.452c-.274.57-.609,1.211-1.021,1.952-.442.79-.869,1.631-1.321,2.522a43.357,43.357,0,0,1-3.9,6.613c-1.745,1.968-3.452,2.912-5.082,2.8a5.118,5.118,0,0,1-2.688-1.11l-.475-.356-.473.356a5.1,5.1,0,0,1-2.686,1.11c-1.505.1-2.97-.78-4.894-2.95a91.769,91.769,0,0,1-4.924-8.122l-.481-.862c-.406-.725-.741-1.365-1.024-1.953a14.944,14.944,0,0,1-.945-2.426l-.013-.047c-.051-.179-.091-.356-.127-.526-.017-.081-.031-.163-.047-.249-.029-.155-.053-.31-.07-.466-.006-.058-.01-.116-.012-.176l-.008-.12c-.008-.116-.018-.234-.021-.351a7.7,7.7,0,0,1,.05-.966,9.745,9.745,0,0,1,3.25-6,.884.884,0,0,0,.469-.388" transform="translate(0 0)" fill="#272525"/>
      </g>
    </g>
  </g>
</svg>
