<svg xmlns="http://www.w3.org/2000/svg" xmlns:xlink="http://www.w3.org/1999/xlink" width="60" height="60" viewBox="0 0 60 60">
  <defs>
    <clipPath id="clip-path">
      <rect id="사각형_173" data-name="사각형 173" width="44.075" height="36.278"/>
    </clipPath>
  </defs>
  <g id="icon_대인관계" transform="translate(0 9.463)">
    <rect id="사각형_122" data-name="사각형 122" width="60" height="60" transform="translate(0 -9.463)" fill="#fff"/>
    <g id="그룹_198" data-name="그룹 198" transform="translate(7.962 2.398)">
      <g id="그룹_197" data-name="그룹 197" transform="translate(0 0)" clip-path="url(#clip-path)">
        <path id="패스_3314" data-name="패스 3314" d="M29.435,3.752c-.19-.026-.377-.045-.567-.057-1.344-.545-3.736-.928-6.543,1.232l-.067.057-.92.926a6.087,6.087,0,0,0-7-.393L10.889,2.063,0,12.952,4.128,17.08A10.555,10.555,0,0,0,6.1,22.743,15.022,15.022,0,0,0,7.9,24.935c.853.863,1.714,1.715,2.57,2.571a2.5,2.5,0,0,0,.44,3.483,2.848,2.848,0,0,0,3.292.773.029.029,0,0,1,.031.012c.978,1.464,1.879,2.172,2.851,2.25.4.392.8.789,1.208,1.18a3.774,3.774,0,0,0,4.483.588A2.57,2.57,0,0,0,23.83,34.63c2.451,2.056,4.085,2.093,6.012-.792a.031.031,0,0,1,.033-.012,2.845,2.845,0,0,0,3.291-.774,2.517,2.517,0,0,0,.27-3.714c-.008-.011-.3-.395-.289-.395a2.291,2.291,0,0,0,1.817-.954,2.8,2.8,0,0,0-.127-3.779c.444-.448.893-.889,1.338-1.338a14.931,14.931,0,0,0,1.806-2.193,10.55,10.55,0,0,0,1.967-5.662l4.129-4.129L33.188,0ZM8.564,23.355a10.036,10.036,0,0,1-2.6-4.442,7.578,7.578,0,0,1-.193-1.137,7.926,7.926,0,0,1-.03-.975L1.552,12.616l9-9L13.437,6.5l.191.191-.012.029,1.394.116.09-.225c.55-.374,2.832-1.64,5.879.681l4.029,4.05a1.086,1.086,0,0,1,0,1.526l-.266.266a1.083,1.083,0,0,1-1.528,0L19.088,8.989l-1,.7L19.2,11l.483.486q-.709.711-1.421,1.421a.821.821,0,0,0-.218.377l-.07.074q-4.158,4.162-8.314,8.321a4.269,4.269,0,0,0-1.1,1.681M21.928,34.584a1.381,1.381,0,0,1-1.124.451,2.393,2.393,0,0,1-1.434-.868c-.2-.193-.388-.385-.583-.579a8.773,8.773,0,0,0,1.458-1.021A2.579,2.579,0,0,0,21.3,33.729a3.591,3.591,0,0,0,.879.359,1.051,1.051,0,0,1-.251.5m5.941-.558c-.619.728-1.326.791-2.23-.048-.141-.13-.277-.262-.418-.393a3.8,3.8,0,0,0,.563-.445c.517-.5,1.027-1,1.543-1.506l.165.164c.849.852.963,1.541.377,2.228m4.306-2.251a1.476,1.476,0,0,1-2.434.02q-.639-.637-1.274-1.274c.7-.684,1.4-1.365,2.1-2.052.393.395.791.788,1.184,1.182.761.765.89,1.484.423,2.123m1.744-5.045a1.442,1.442,0,0,1-2.011.755,2.193,2.193,0,0,1-.212-.134c.674-.668,1.345-1.344,2.015-2.017a1.313,1.313,0,0,1,.208,1.4m8.6-16.177-4.186,4.186a8.186,8.186,0,0,1-.029.974,7.757,7.757,0,0,1-.194,1.137,10.027,10.027,0,0,1-2.62,4.459c-1.709,1.8-3.5,3.52-5.255,5.274-1.842,1.843-3.676,3.692-5.532,5.52a2.4,2.4,0,0,1-1.435.867,1.376,1.376,0,0,1-1.124-.451,1.653,1.653,0,0,1-.266-1.382,3.18,3.18,0,0,1,.886-1.248c.838-.859,1.694-1.7,2.542-2.555.414-.414.825-.829,1.232-1.251.433-.448,1.7-1.391.99-2.058-.653-.609-1.587.567-1.978.961-.414.416-.826.832-1.247,1.241-1.95,1.9-3.874,3.833-5.87,5.685-.9.838-1.611.774-2.228.048-.586-.688-.474-1.378.377-2.228q3.312-3.32,6.629-6.633a1.583,1.583,0,0,0,.635-.987c.042-.351-.086-.661-.446-.715a1.288,1.288,0,0,0-1.263.531q-3.9,3.9-7.8,7.8a1.476,1.476,0,0,1-2.434-.02c-.467-.638-.337-1.359.423-2.122q3.957-3.975,7.931-7.931c.433-.429.773-.912.243-1.408-.507-.474-.942-.053-1.33.333q-3.05,3.062-6.111,6.111a4.182,4.182,0,0,1-.889.728,1.443,1.443,0,0,1-2.011-.756c-.325-.815.093-1.331.609-1.846q5.073-5.053,10.112-10.135l1.386,1.39a2.416,2.416,0,0,0,3.416.008l.266-.265a2.406,2.406,0,0,0,.082-3.327l-3.071-3.1-.6-.606.821-.823a5.746,5.746,0,0,1,6.558-.613l.908-.909,2.885-2.885Z" transform="translate(0 -0.001)"/>
      </g>
    </g>
  </g>
</svg>
