<svg xmlns="http://www.w3.org/2000/svg" xmlns:xlink="http://www.w3.org/1999/xlink" width="60" height="60" viewBox="0 0 60 60">
  <defs>
    <clipPath id="clip-path">
      <rect id="사각형_176" data-name="사각형 176" width="38.148" height="30.547"/>
    </clipPath>
  </defs>
  <g id="icon_대화" transform="translate(0 9.463)">
    <rect id="사각형_122" data-name="사각형 122" width="60" height="60" transform="translate(0 -9.463)" fill="#fff"/>
    <g id="그룹_204" data-name="그룹 204" transform="translate(10.926 5.262)">
      <g id="그룹_203" data-name="그룹 203" transform="translate(0 0.001)" clip-path="url(#clip-path)">
        <path id="패스_3320" data-name="패스 3320" d="M36.748,24.787a11.16,11.16,0,0,0,1.4-5.42c0-6-5.454-11.271-11.693-11.314A13.868,13.868,0,1,0,1.785,20.679L.1,26.213a.888.888,0,0,0,1.02,1.13l6.252-1.222a13.861,13.861,0,0,0,11.321.754,11.17,11.17,0,0,0,13.462,2.4l4.892.957a.888.888,0,0,0,1.02-1.131Zm-28.8-.373a.889.889,0,0,0-.606-.1l-5.116,1,1.37-4.49a.887.887,0,0,0-.089-.718,12.1,12.1,0,1,1,4.441,4.306m26.988.521,1,3.267-3.754-.735a.886.886,0,0,0-.606.1A9.4,9.4,0,0,1,20.406,26.1,13.861,13.861,0,0,0,27.147,9.861c5,.4,9.225,4.67,9.225,9.506a9.385,9.385,0,0,1-1.346,4.851.885.885,0,0,0-.089.718" transform="translate(0 0)"/>
        <path id="패스_3321" data-name="패스 3321" d="M15.547,27.148a.958.958,0,1,0,.958.958.958.958,0,0,0-.958-.958" transform="translate(-6.869 -12.782)"/>
        <path id="패스_3322" data-name="패스 3322" d="M24.959,27.148a.958.958,0,1,0,.958.958.958.958,0,0,0-.958-.958" transform="translate(-11.3 -12.782)"/>
        <path id="패스_3323" data-name="패스 3323" d="M34.371,27.148a.958.958,0,1,0,.958.958.958.958,0,0,0-.958-.958" transform="translate(-15.731 -12.782)"/>
      </g>
    </g>
  </g>
</svg>
