<svg xmlns="http://www.w3.org/2000/svg" xmlns:xlink="http://www.w3.org/1999/xlink" width="60" height="60" viewBox="0 0 60 60">
  <defs>
    <clipPath id="clip-path">
      <rect id="사각형_121" data-name="사각형 121" width="47.699" height="32.653"/>
    </clipPath>
  </defs>
  <g id="icon_재물" transform="translate(0 9.463)">
    <rect id="사각형_122" data-name="사각형 122" width="60" height="60" transform="translate(0 -9.463)" fill="#fff"/>
    <g id="그룹_134" data-name="그룹 134" transform="translate(6.151 4.21)" clip-path="url(#clip-path)">
      <path id="패스_3290" data-name="패스 3290" d="M46.26,35.454H12.251a.647.647,0,1,1,0-1.293H46.26a2.926,2.926,0,0,0,2.922-2.922V12.347a.647.647,0,0,1,1.294,0V31.238a4.22,4.22,0,0,1-4.216,4.215" transform="translate(-2.778 -2.8)"/>
      <path id="패스_3291" data-name="패스 3291" d="M42.057,31.2H8.048a.647.647,0,1,1,0-1.293H42.057a2.926,2.926,0,0,0,2.922-2.923V8.1a.647.647,0,0,1,1.294,0V26.988A4.221,4.221,0,0,1,42.057,31.2" transform="translate(-1.772 -1.783)"/>
      <path id="패스_3292" data-name="패스 3292" d="M37.089,26.188H4.215A4.219,4.219,0,0,1,0,21.973V4.215A4.22,4.22,0,0,1,4.215,0H37.089A4.221,4.221,0,0,1,41.3,4.215V21.973a4.22,4.22,0,0,1-4.216,4.215M4.215,1.293A2.925,2.925,0,0,0,1.293,4.215V21.973a2.925,2.925,0,0,0,2.922,2.922H37.089a2.925,2.925,0,0,0,2.922-2.922V4.215a2.926,2.926,0,0,0-2.922-2.922Z" transform="translate(0 0)"/>
      <path id="패스_3293" data-name="패스 3293" d="M35.921,23.466a.647.647,0,0,1-.627-.808,5.841,5.841,0,0,1,4.093-4.247V10.276A5.807,5.807,0,0,1,35.44,6.515h-19.1a.647.647,0,1,1,0-1.293H35.92a.645.645,0,0,1,.626.486,4.511,4.511,0,0,0,3.589,3.407.647.647,0,0,1,.545.639v9.181a.647.647,0,0,1-.545.639,4.51,4.51,0,0,0-3.589,3.406.645.645,0,0,1-.625.487" transform="translate(-3.757 -1.25)"/>
      <path id="패스_3294" data-name="패스 3294" d="M29.853,23.466H10.522a.646.646,0,0,1-.626-.485,4.514,4.514,0,0,0-3.59-3.408.647.647,0,0,1-.545-.639V9.754a.647.647,0,0,1,.545-.639A4.516,4.516,0,0,0,9.9,5.708a.646.646,0,0,1,1.252.323,5.848,5.848,0,0,1-4.094,4.247v8.135A5.81,5.81,0,0,1,11,22.173H29.853a.647.647,0,1,1,0,1.293" transform="translate(-1.379 -1.25)"/>
      <path id="패스_3295" data-name="패스 3295" d="M25.314,21.214a5.834,5.834,0,1,1,5.836-5.835,5.843,5.843,0,0,1-5.836,5.835m0-10.376a4.541,4.541,0,1,0,4.542,4.541,4.548,4.548,0,0,0-4.542-4.541" transform="translate(-4.662 -2.285)"/>
      <path id="패스_3296" data-name="패스 3296" d="M12.552,18.274a.646.646,0,0,1-.647-.647v-1.8a.647.647,0,1,1,1.293,0v1.8a.646.646,0,0,1-.647.647" transform="translate(-2.85 -3.634)"/>
      <path id="패스_3297" data-name="패스 3297" d="M41.457,18.274a.647.647,0,0,1-.647-.647v-1.8a.647.647,0,0,1,1.295,0v1.8a.647.647,0,0,1-.647.647" transform="translate(-9.769 -3.634)"/>
    </g>
  </g>
</svg>
