<?xml version="1.0" encoding="utf-8"?>
<!-- Generator: Adobe Illustrator 22.0.1, SVG Export Plug-In . SVG Version: 6.00 Build 0)  -->
<svg version="1.1" id="Layer_1" xmlns="http://www.w3.org/2000/svg" xmlns:xlink="http://www.w3.org/1999/xlink" x="0px" y="0px"
	 viewBox="0 0 53.5 53.5" style="enable-background:new 0 0 53.5 53.5;" xml:space="preserve">
<style type="text/css">
	.st0{fill:url(#SVGID_1_);}
	.st1{fill:#F1F2F2;}
</style>
<radialGradient id="SVGID_1_" cx="10.3014" cy="45.0767" r="52.9383" gradientUnits="userSpaceOnUse">
	<stop  offset="0" style="stop-color:#FEC053"/>
	<stop  offset="0.3273" style="stop-color:#F2203E"/>
	<stop  offset="0.6485" style="stop-color:#B729A8"/>
	<stop  offset="1" style="stop-color:#5342D6"/>
</radialGradient>
<circle class="st0" cx="26.7" cy="26.7" r="26.7"/>
<g>
	<g>
		<path class="st1" d="M34.5,40.2H19c-3.2,0-5.8-2.6-5.8-5.8V19c0-3.2,2.6-5.8,5.8-5.8h15.4c3.2,0,5.8,2.6,5.8,5.8v15.4
			C40.2,37.6,37.6,40.2,34.5,40.2z M19,16.4c-1.4,0-2.6,1.2-2.6,2.6v15.4c0,1.4,1.2,2.6,2.6,2.6h15.4c1.4,0,2.6-1.2,2.6-2.6V19
			c0-1.4-1.2-2.6-2.6-2.6H19z"/>
	</g>
	<g>
		<path class="st1" d="M26.7,34.2c-4.1,0-7.5-3.3-7.5-7.5s3.3-7.5,7.5-7.5c4.1,0,7.5,3.3,7.5,7.5S30.8,34.2,26.7,34.2z M26.7,22.4
			c-2.4,0-4.3,1.9-4.3,4.3c0,2.4,1.9,4.3,4.3,4.3c2.4,0,4.3-1.9,4.3-4.3C31,24.4,29.1,22.4,26.7,22.4z"/>
	</g>
	<path class="st1" d="M35.7,19.5c0,0.7-0.6,1.3-1.3,1.3c-0.7,0-1.3-0.6-1.3-1.3s0.6-1.3,1.3-1.3C35.1,18.2,35.7,18.8,35.7,19.5z"/>
</g>
</svg>
