<?xml version="1.0" encoding="utf-8"?>
<!-- Generator: Adobe Illustrator 22.0.1, SVG Export Plug-In . SVG Version: 6.00 Build 0)  -->
<svg version="1.1" id="Layer_1" xmlns="http://www.w3.org/2000/svg" xmlns:xlink="http://www.w3.org/1999/xlink" x="0px" y="0px"
	 viewBox="0 0 53.9 53.9" style="enable-background:new 0 0 53.9 53.9;" xml:space="preserve">
<style type="text/css">
	.st0{fill:#2AA9E0;}
	.st1{fill:#FFFFFF;}
</style>
<circle class="st0" cx="26.9" cy="26.9" r="26.9"/>
<path class="st1" d="M42.1,18.8c-1,0.4-2.1,0.7-3.2,0.9c1.2-0.7,2-1.8,2.5-3.1c-1.1,0.6-2.3,1.1-3.6,1.4c-1-1.1-2.5-1.8-4.1-1.8
	c-3.1,0-5.6,2.5-5.6,5.6c0,0.4,0,0.9,0.1,1.3c-4.7-0.2-8.8-2.5-11.6-5.9C16.1,18,15.9,19,15.9,20c0,1.9,1,3.7,2.5,4.7
	c-0.9,0-1.8-0.3-2.5-0.7c0,0,0,0,0,0.1c0,2.7,1.9,5,4.5,5.5c-0.5,0.1-1,0.2-1.5,0.2c-0.4,0-0.7,0-1.1-0.1c0.7,2.2,2.8,3.8,5.2,3.9
	c-1.9,1.5-4.3,2.4-7,2.4c-0.5,0-0.9,0-1.3-0.1c2.5,1.6,5.4,2.5,8.6,2.5c10.3,0,16-8.5,16-16c0-0.2,0-0.5,0-0.7
	C40.3,20.9,41.3,19.9,42.1,18.8z"/>
</svg>
