<?xml version="1.0" encoding="utf-8"?>
<!-- Generator: Adobe Illustrator 22.0.1, SVG Export Plug-In . SVG Version: 6.00 Build 0)  -->
<svg version="1.1" id="Layer_1" xmlns="http://www.w3.org/2000/svg" xmlns:xlink="http://www.w3.org/1999/xlink" x="0px" y="0px"
	 viewBox="0 0 53.9 53.9" style="enable-background:new 0 0 53.9 53.9;" xml:space="preserve">
<style type="text/css">
	.st0{fill:#FEC10D;}
	.st1{fill:#FFFFFF;}
</style>
<circle class="st0" cx="26.9" cy="26.9" r="26.9"/>
<path class="st1" d="M31.5,15.8H20.8c-0.7,0-1.3,0.6-1.3,1.3v10.6c0,0.7,0.6,1.3,1.3,1.3h4.9c0,1.3-0.6,2.6-1.3,3.9
	c-0.9,1.4-2.7,2.9-2.7,2.9c-0.1,0.1-0.3,0.3-0.3,0.5c0,0.2,0.1,0.3,0.2,0.4l3.4,3.9c0,0,0.2,0.2,0.3,0.2c0.2,0,0.3,0,0.5,0
	c6-4.6,6.8-10.3,7-13.4c0,0,0-10.2,0-10.2C32.8,16.4,32.2,15.8,31.5,15.8"/>
</svg>
