<?xml version="1.0" encoding="utf-8"?>
<!-- Generator: Adobe Illustrator 22.0.1, SVG Export Plug-In . SVG Version: 6.00 Build 0)  -->
<svg version="1.1" id="Layer_1" xmlns="http://www.w3.org/2000/svg" xmlns:xlink="http://www.w3.org/1999/xlink" x="0px" y="0px"
	 viewBox="0 0 53.9 53.9" style="enable-background:new 0 0 53.9 53.9;" xml:space="preserve">
<style type="text/css">
	.st0{fill:#A5A5AC;}
	.st1{fill-rule:evenodd;clip-rule:evenodd;fill:#FFFFFF;}
</style>
<g>
	<circle class="st0" cx="26.9" cy="26.9" r="26.9"/>
	<path id="XMLID_2_" class="st1" d="M24,33.5c0-2,0-3.9,0-5.9c0-0.3-0.1-0.4-0.4-0.4c-0.6,0-1.2,0-1.8,0c-0.2,0-0.3-0.1-0.3-0.3
		c0-1.2,0-2.4,0-3.7c0-0.2,0.1-0.3,0.3-0.3c0.6,0,1.3,0,1.9,0c0.4,0,0.4-0.1,0.4-0.4c0-0.9,0-1.9,0-2.8c0-1.1,0.3-2.2,1-3.1
		c0.9-1.2,2.1-1.7,3.5-1.8c1.4-0.1,2.9,0,4.3,0c0.2,0,0.3,0.1,0.3,0.3c0,1.2,0,2.5,0,3.7c0,0.2-0.1,0.3-0.3,0.3c-0.7,0-1.4,0-2.1,0
		c-0.9,0-1.5,0.5-1.5,1.4c0,0.7,0,1.5,0,2.2c0,0.3,0.1,0.2,0.3,0.2c1.1,0,2.1,0,3.2,0c0.3,0,0.4,0.1,0.4,0.4
		c-0.1,1.2-0.2,2.5-0.4,3.7c0,0.3-0.2,0.3-0.4,0.3c-0.8,0-1.7,0-2.5,0c-0.6,0-0.5-0.1-0.5,0.5c0,3.8,0,7.7,0,11.5
		c0,0.4-0.1,0.5-0.5,0.5c-1.4,0-2.9,0-4.3,0c-0.4,0-0.5-0.1-0.5-0.5C24,37.4,24,35.5,24,33.5z"/>
</g>
</svg>
