<?xml version="1.0" encoding="utf-8"?>
<!-- Generator: Adobe Illustrator 22.0.1, SVG Export Plug-In . SVG Version: 6.00 Build 0)  -->
<svg version="1.1" id="레이어_1" xmlns="http://www.w3.org/2000/svg" xmlns:xlink="http://www.w3.org/1999/xlink" x="0px"
	 y="0px" viewBox="0 0 157 34" style="enable-background:new 0 0 157 34;" xml:space="preserve">
<style type="text/css">
	.st0{fill:#FFFFFF;}
</style>
<g>
	<path class="st0" d="M157,8v3.5h-5.1V18h-5.8v-4.5l0-9c0,0-0.2-2.3,2.2-2.3c1.3,0,3.6,0,3.6,0v0h5.1v3.4h-5.1V8H157z M142.2,34
		c-5,0-9.1-3.4-9.1-7.6c0-4.2,4.1-7.6,9.1-7.6c5.1,0,9.1,3.4,9.1,7.6C151.4,30.6,147.3,34,142.2,34z M142.2,22.5
		c-2,0-3.6,1.7-3.6,3.9c0,2.1,1.6,3.9,3.6,3.9c2,0,3.6-1.7,3.6-3.9C145.8,24.2,144.2,22.5,142.2,22.5z M141.9,10.7
		c0,4.1-3.6,7.4-8.1,7.4c-4.5,0-8.1-3.3-8.1-7.4c0-2,0.9-3.8,2.3-5.1h-3.6V2.3h6.6V0h5.5v2.3h6.4v3.3h-3.3
		C141,6.9,141.9,8.7,141.9,10.7z M133.6,7.4c-1.7,0-3.1,1.4-3.1,3.2c0,1.8,1.4,3.2,3.1,3.2c1.7,0,3.1-1.4,3.1-3.2
		C136.7,8.9,135.3,7.4,133.6,7.4z M122.2,13.5V18h-5.8v-6.5h-5.5V8h5.5V5.6h-5.5V2.2h5.5v0c0,0,2.4,0,3.6,0c2.4,0,2.2,2.3,2.2,2.3
		L122.2,13.5z M92.3,19.5l0-3c9.5-0.6,11-5.8,11.3-8c0.3-2.3,0.1-2.8,0.1-2.8H92.4l0-3.5c0,0,16.7,0,17.1,0c0.1,1.3-0.1,5.1-0.1,5.1
		C108.4,19.8,92.3,19.5,92.3,19.5z M60.8,20h29.3v3.6H60.8V20z M75.4,10.4c-4.8,6.1-13.8,6.7-13.8,6.7l0-3.4c8.4-0.5,9.9-5.6,10.4-8
		h-9.9V2.2H72V0h6.8v2.2h10v3.5h-10c0.5,2.4,2,7.5,10.4,8l0,3.4C89.2,17.1,80.2,16.5,75.4,10.4z M30.4,20h11.7v-4.9H31.7V12h5V5.7
		h-5V2.2h26.7v3.5h-5V12h5v3.1H48V20h11.7v3.6H30.4V20z M48,12V5.7h-5.9V12H48z M0,20h29.3v3.6H0V20z M14.6,8.3
		c-4.1,9.1-14.2,8.8-14.2,8.8l0-3.8c6.9-0.4,9.7-5.2,10.2-11.1h0.6H18h0.6c0.5,5.9,3.4,10.7,10.2,11.1l0,3.8
		C28.8,17.1,18.8,17.4,14.6,8.3z M111,18.7c5.1,0,9.1,3.4,9.1,7.6c0,4.2-4.1,7.6-9.1,7.6c-5,0-9.1-3.4-9.1-7.6
		C101.9,22.1,105.9,18.7,111,18.7z M111,30.2c2,0,3.6-1.7,3.6-3.9c0-2.1-1.6-3.9-3.6-3.9c-2,0-3.6,1.7-3.6,3.9
		C107.4,28.5,109,30.2,111,30.2z"/>
</g>
</svg>
