<svg xmlns="http://www.w3.org/2000/svg" width="40" height="40" viewBox="0 0 40 40">
    <path data-name="사각형 112" style="fill:none" d="M0 0h40v40H0z"/>
    <path data-name="합치기 9" d="M24 27.5a3.519 3.519 0 0 1 .069-.7l-9.081-4.842A3.491 3.491 0 0 1 12.5 23 3.5 3.5 0 0 1 9 19.5a3.5 3.5 0 0 1 3.5-3.5 3.49 3.49 0 0 1 2.489 1.04l9.08-4.842a3.519 3.519 0 0 1-.069-.7 3.5 3.5 0 0 1 3.5-3.5 3.5 3.5 0 0 1 3.5 3.5 3.5 3.5 0 0 1-3.5 3.5 3.488 3.488 0 0 1-2.488-1.039l-9.08 4.843a3.519 3.519 0 0 1 .069.7 3.52 3.52 0 0 1-.069.7l9.08 4.842A3.49 3.49 0 0 1 27.5 24a3.5 3.5 0 0 1 3.5 3.5 3.5 3.5 0 0 1-3.5 3.5 3.5 3.5 0 0 1-3.5-3.5z"/>
</svg>
