<svg xmlns="http://www.w3.org/2000/svg" width="42" height="42" viewBox="0 0 42 42">
    <defs>
        <clipPath id="4pv1sec5ya">
            <path data-name="사각형 96" style="fill:none" d="M0 0h26.63v37.443H0z"/>
        </clipPath>
    </defs>
    <path data-name="사각형 95" style="fill:none" d="M0 0h42v42H0z"/>
    <g data-name="그룹 100">
        <g data-name="그룹 99" style="clip-path:url(#4pv1sec5ya)" transform="translate(7.685 2.278)">
            <path data-name="패스 3027" d="M23.127 1.471a1.45 1.45 0 0 1-1.37-1.116.469.469 0 0 0-.922.067 1.464 1.464 0 0 1-1.207 1.306.491.491 0 0 0 .067.961 1.365 1.365 0 0 1 1.386 1.178.472.472 0 0 0 .459.371h.033a.472.472 0 0 0 .435-.436 1.363 1.363 0 0 1 1.195-1.369.49.49 0 0 0-.077-.961m-1.675 1.089a2.043 2.043 0 0 0-.552-.455 2.22 2.22 0 0 0 .482-.525 2.2 2.2 0 0 0 .548.449 2.042 2.042 0 0 0-.479.531"/>
            <path data-name="패스 3028" d="M24.207 8.811a.457.457 0 0 0-.615.2l-.374.73a.457.457 0 1 0 .813.417l.374-.73a.457.457 0 0 0-.2-.615"/>
            <path data-name="패스 3029" d="M22.312 12.498a.456.456 0 0 0 .614-.2l.374-.73a.457.457 0 1 0-.813-.417l-.374.73a.457.457 0 0 0 .2.615"/>
            <path data-name="패스 3030" d="M23.555 10.808a.457.457 0 0 0 .2.615l.725.375a.457.457 0 1 0 .419-.811l-.725-.375a.456.456 0 0 0-.615.2"/>
            <path data-name="패스 3031" d="M22.555 10.747a.457.457 0 0 0 .21-.862l-.725-.375a.457.457 0 0 0-.424.809l.725.375a.455.455 0 0 0 .209.051"/>
            <path data-name="패스 3032" d="m6.803 1.984.374-.73a.457.457 0 0 0-.813-.417l-.374.73a.457.457 0 1 0 .813.417"/>
            <path data-name="패스 3033" d="M5.086 4.327a.457.457 0 0 0 .616-.194l.374-.73a.457.457 0 1 0-.813-.417l-.374.73a.457.457 0 0 0 .194.616"/>
            <path data-name="패스 3034" d="m6.528 3.252.725.375a.457.457 0 0 0 .436-.8l-.016-.008-.725-.375a.457.457 0 1 0-.419.811"/>
            <path data-name="패스 3035" d="m4.397 2.15.725.375a.457.457 0 0 0 .419-.811l-.725-.375a.457.457 0 1 0-.419.811"/>
            <path data-name="패스 3036" d="M23.451 15.492a13.516 13.516 0 0 0-7.035-4.389L18.8 8.525a.457.457 0 0 0 .075-.51L17.4 4.977a.457.457 0 0 0-.411-.257H9.523a.457.457 0 0 0-.417.27L7.749 8.029a.457.457 0 0 0 .08.495l2.365 2.584a14.011 14.011 0 0 0-4.646 2.18 2.555 2.555 0 0 1-1.276-1.7.478.478 0 0 0-.939.067 2.749 2.749 0 0 1-2.223 2.422.507.507 0 0 0-.383.512.513.513 0 0 0 .45.493 2.961 2.961 0 0 1 1.767.684 13.324 13.324 0 0 0 10.371 21.677 13.316 13.316 0 0 0 10.136-21.951m-9.083-3.52 1.075-3.3h1.977zm-1.068.33-1.122-3.63h2.3zm.047 2a9.89 9.89 0 1 1-9.876 9.89 9.894 9.894 0 0 1 9.876-9.89m4.388-6.54h-1.8l1.01-1.635zm-1.566-2.125-1.048 1.7-1-1.7zm-1.857 2.121h-1.96l.973-1.677zm-1.784-2.125-1 1.719-1.152-1.719zM9.6 6.117l1.1 1.641H8.87zm-.4 2.555h2.019l1.03 3.33zm-6.654 5.786A3.455 3.455 0 0 0 3.9 12.994a3.429 3.429 0 0 0 1.541 1.252 3.124 3.124 0 0 0-1.341 1.48 3.127 3.127 0 0 0-1.554-1.268M13.315 36.53A12.408 12.408 0 0 1 3.5 16.543a3.507 3.507 0 0 1 .239.728.475.475 0 0 0 .466.378h.036a.475.475 0 0 0 .442-.445 2.576 2.576 0 0 1 2.2-2.539.513.513 0 0 0-.08-1 3.152 3.152 0 0 1-.152-.019 12.945 12.945 0 0 1 4.249-1.767l1.424 1.555a10.789 10.789 0 1 0 1.943-.009l1.433-1.549a12.579 12.579 0 0 1 7.054 4.205 12.4 12.4 0 0 1-9.439 20.448"/>
        </g>
    </g>
</svg>
