<svg xmlns="http://www.w3.org/2000/svg" width="42" height="42" viewBox="0 0 42 42">
    <defs>
        <clipPath id="r21q90g2ya">
            <path data-name="사각형 97" d="M0 0h40v27.383H0z"/>
        </clipPath>
    </defs>
    <path data-name="사각형 95" style="fill:none" d="M0 0h42v42H0z"/>
    <g data-name="그룹 102">
        <g data-name="그룹 101" transform="translate(1 7.309)" style="clip-path:url(#r21q90g2ya)">
            <path data-name="패스 3037" d="M36.465 27.383H7.945a.542.542 0 1 1 0-1.084h28.52a2.454 2.454 0 0 0 2.451-2.451V8.005a.542.542 0 0 1 1.085 0v15.843a3.539 3.539 0 0 1-3.536 3.535"/>
            <path data-name="패스 3038" d="M33.784 24.672H5.264a.542.542 0 1 1 0-1.084h28.52a2.453 2.453 0 0 0 2.45-2.451V5.294a.542.542 0 0 1 1.085 0v15.843a3.539 3.539 0 0 1-3.535 3.536"/>
            <path data-name="패스 3039" d="M31.1 21.961H3.534A3.538 3.538 0 0 1 0 18.426V3.535A3.539 3.539 0 0 1 3.534 0H31.1a3.539 3.539 0 0 1 3.536 3.535v14.891a3.539 3.539 0 0 1-3.536 3.535M3.534 1.084a2.453 2.453 0 0 0-2.45 2.451v14.891a2.453 2.453 0 0 0 2.45 2.45H31.1a2.453 2.453 0 0 0 2.451-2.45V3.535A2.454 2.454 0 0 0 31.1 1.084z"/>
            <path data-name="패스 3040" d="M26.972 18.631a.543.543 0 0 1-.526-.677 4.9 4.9 0 0 1 3.432-3.562V7.57a4.87 4.87 0 0 1-3.31-3.154H10.554a.542.542 0 1 1 0-1.084h16.417a.541.541 0 0 1 .525.408 3.783 3.783 0 0 0 3.01 2.857.543.543 0 0 1 .457.536v7.7a.543.543 0 0 1-.457.536 3.782 3.782 0 0 0-3.01 2.856.541.541 0 0 1-.524.408"/>
            <path data-name="패스 3041" d="M23.878 18.631H7.667a.542.542 0 0 1-.525-.407 3.786 3.786 0 0 0-3.011-2.858.542.542 0 0 1-.457-.536v-7.7a.542.542 0 0 1 .457-.536 3.787 3.787 0 0 0 3.011-2.855.542.542 0 0 1 1.05.27A4.9 4.9 0 0 1 4.759 7.57v6.822a4.873 4.873 0 0 1 3.31 3.154h15.809a.542.542 0 1 1 0 1.084"/>
            <path data-name="패스 3042" d="M17.319 15.874a4.893 4.893 0 1 1 4.894-4.893 4.9 4.9 0 0 1-4.894 4.893m0-8.7a3.808 3.808 0 1 0 3.809 3.808 3.814 3.814 0 0 0-3.809-3.808"/>
            <path data-name="패스 3043" d="M8.136 12.277a.542.542 0 0 1-.542-.542v-1.508a.542.542 0 1 1 1.084 0v1.508a.542.542 0 0 1-.542.542"/>
            <path data-name="패스 3044" d="M26.574 12.277a.542.542 0 0 1-.543-.542v-1.508a.543.543 0 0 1 1.086 0v1.508a.542.542 0 0 1-.543.542"/>
        </g>
    </g>
</svg>
