<svg xmlns="http://www.w3.org/2000/svg" width="42" height="42" viewBox="0 0 42 42">
    <defs>
        <clipPath id="65e2q2nmoa">
            <path data-name="사각형 94" style="fill:none" d="M0 0h40v36.722H0z"/>
        </clipPath>
    </defs>
    <g data-name="그룹 93" transform="translate(1 2.278)" style="clip-path:url(#65e2q2nmoa)">
        <path data-name="패스 3020" d="M36.742 27.05a.861.861 0 1 0 .861.861.861.861 0 0 0-.861-.861m0 .976a.115.115 0 1 1 .115-.115.115.115 0 0 1-.115.115"/>
        <path data-name="패스 3021" d="M20.671 4.431a.942.942 0 1 0-.942-.943.943.943 0 0 0 .942.943zm-.033-.942a.033.033 0 1 1 .033.034.033.033 0 0 1-.033-.034"/>
        <path data-name="패스 3022" d="M28.611 7.647a8.049 8.049 0 1 0 8.061 8.049 8.064 8.064 0 0 0-8.061-8.049m0 15.122a7.073 7.073 0 1 1 7.086-7.073 7.073 7.073 0 0 1-7.086 7.073"/>
        <path data-name="패스 3023" d="m34.051 18.054-1.366-2.358 1.364-2.359a.776.776 0 0 0-.672-1.165h-2.73l-1.362-2.361a.776.776 0 0 0-1.344 0l-1.365 2.361h-2.731a.776.776 0 0 0-.672 1.165l1.364 2.359-1.364 2.359a.776.776 0 0 0 .672 1.165h2.73l1.365 2.36a.777.777 0 0 0 1.344 0l1.365-2.361h2.73a.776.776 0 0 0 .672-1.165m-1.017-4.908-.911 1.574-.911-1.574zm-4.423-2.55.911 1.574h-1.821zm-4.423 2.55h1.821l-.911 1.574zm0 5.1.911-1.574.911 1.574zm4.423 2.55-.911-1.574h1.821zm1.475-2.55h-2.949l-1.474-2.549 1.474-2.549h2.948l1.474 2.549zm1.127 0 .911-1.574.911 1.574z"/>
        <path data-name="패스 3024" d="M3.553 8.244a.942.942 0 1 0 .943.942.942.942 0 0 0-.943-.942m.033.942a.034.034 0 0 1-.033.034.034.034 0 1 1 .033-.035z"/>
        <path data-name="패스 3025" d="M18.554 33.462a.942.942 0 1 0 .943-.941.943.943 0 0 0-.942.941m.909 0a.034.034 0 0 1 .033-.034.034.034 0 1 1-.033.035z"/>
        <path data-name="패스 3026" d="M38.08 0H19.037a1.922 1.922 0 0 0-1.92 1.92V5.7H2.163A2.163 2.163 0 0 0 0 7.856v26.706a2.163 2.163 0 0 0 2.163 2.16h18.556a2.164 2.164 0 0 0 2.163-2.16v-3.536h15.2A1.922 1.922 0 0 0 40 29.106V1.92A1.922 1.922 0 0 0 38.08 0M21.906 34.562a1.187 1.187 0 0 1-1.187 1.184H2.163a1.187 1.187 0 0 1-1.187-1.184V7.856a1.187 1.187 0 0 1 1.187-1.184h14.955v16.949a5.975 5.975 0 0 1-2.2.434h-.008a5.927 5.927 0 0 1-5.223-8.729.774.774 0 0 0-1.064-1.039 7.435 7.435 0 0 0 3.416 13.9h.239a7.445 7.445 0 0 0 4.843-1.77V29.1a1.922 1.922 0 0 0 1.92 1.92h2.869zm-9.625-10.051a6.9 6.9 0 0 0 2.624.519h.01a6.9 6.9 0 0 0 2.2-.37v.4a6.47 6.47 0 1 1-8.592-9.56 6.9 6.9 0 0 0 3.758 9.01m26.743 4.595a.945.945 0 0 1-.944.944H19.037a.945.945 0 0 1-.944-.944V1.92a.945.945 0 0 1 .944-.944H38.08a.945.945 0 0 1 .944.944z"/>
    </g>
    <path data-name="사각형 95" style="fill:none" d="M0 0h42v42H0z"/>
</svg>
