<svg xmlns="http://www.w3.org/2000/svg" width="42" height="42" viewBox="0 0 42 42">
    <defs>
        <clipPath id="j2zpadsgia">
            <path data-name="사각형 98" style="fill:none" d="M0 0h35.368v37.443H0z"/>
        </clipPath>
    </defs>
    <path data-name="사각형 95" style="fill:none" d="M0 0h42v42H0z"/>
    <g data-name="그룹 104">
        <g data-name="그룹 103" style="clip-path:url(#j2zpadsgia)" transform="translate(3.316 2.278)">
            <path data-name="패스 3045" d="M17.689 17.44a.571.571 0 0 1-.4-.167L9.382 9.366A5.49 5.49 0 1 1 17.143 1.6l.541.541.536-.537a5.49 5.49 0 0 1 7.769 7.757l-7.893 7.911a.571.571 0 0 1-.4.168zm-4.43-16.3a4.344 4.344 0 0 0-3.07 7.418l7.5 7.5 7.489-7.506a4.346 4.346 0 1 0-6.153-6.139l-.94.942a.571.571 0 0 1-.808 0l-.946-.946a4.333 4.333 0 0 0-3.073-1.271"/>
            <path data-name="패스 3046" d="M17.684 17.439a.571.571 0 0 1-.571-.571V9.423a.571.571 0 1 1 1.142 0v7.445a.571.571 0 0 1-.571.571"/>
            <path data-name="패스 3047" d="M8.266 30.037a5.487 5.487 0 0 1-4.9-7.946l.343-.685-.679-.339a5.488 5.488 0 0 1 4.907-9.817l10 5a.571.571 0 0 1 .255.766l-5.01 10a5.5 5.5 0 0 1-4.915 3.028M5.494 11.813a4.346 4.346 0 0 0-1.95 8.233l1.19.595a.571.571 0 0 1 .255.766l-.6 1.2a4.346 4.346 0 0 0 7.771 3.895l4.754-9.486-9.484-4.745a4.32 4.32 0 0 0-1.936-.458"/>
            <path data-name="패스 3048" d="M10.619 19.684a.571.571 0 0 1-.18-1.113l7.065-2.347a.571.571 0 0 1 .36 1.083l-7.065 2.347a.571.571 0 0 1-.18.029"/>
            <path data-name="패스 3049" d="M27.102 30.037a5.494 5.494 0 0 1-4.915-3.028l-5.011-10a.571.571 0 0 1 .255-.766l10-5a5.489 5.489 0 1 1 4.904 9.821l-.679.339.343.685a5.487 5.487 0 0 1-4.9 7.946M18.45 17.009l4.755 9.486a4.346 4.346 0 0 0 7.771-3.895l-.6-1.2a.571.571 0 0 1 .255-.766l1.19-.595a4.346 4.346 0 0 0-3.886-7.775z"/>
            <path data-name="패스 3050" d="M24.749 19.684a.571.571 0 0 1-.18-.029l-7.065-2.347a.571.571 0 0 1 .36-1.083l7.065 2.347a.571.571 0 0 1-.18 1.113"/>
            <path data-name="패스 3051" d="M22.829 37.444a.57.57 0 0 1-.45-.219 27.059 27.059 0 0 1-5.211-13.561 30.9 30.9 0 0 1-.052-6.983.571.571 0 0 1 1.131.154 30.4 30.4 0 0 0 .059 6.733 25.911 25.911 0 0 0 4.971 12.953.571.571 0 0 1-.449.923"/>
        </g>
    </g>
</svg>
